<?xml version="1.0" standalone="no"?>
<!DOCTYPE svg PUBLIC "-//W3C//DTD SVG 20010904//EN"
 "http://www.w3.org/TR/2001/REC-SVG-20010904/DTD/svg10.dtd">
<svg version="1.0" xmlns="http://www.w3.org/2000/svg"
 width="1024.000000pt" height="819.000000pt" viewBox="0 0 1024.000000 819.000000"
 preserveAspectRatio="xMidYMid meet">
<metadata>
Created by potrace 1.12, written by Peter Selinger 2001-2015
</metadata>
<g transform="translate(0.000000,819.000000) scale(0.100000,-0.100000)"
fill="#000000" stroke="none">
<path d="M4735 7164 c-583 -37 -1099 -135 -1605 -303 -1887 -629 -2840 -2084
-2294 -3500 81 -209 254 -500 409 -686 88 -106 278 -298 390 -394 1066 -918
2836 -1325 4520 -1041 1457 245 2631 982 3100 1945 110 227 176 432 211 666
24 158 24 463 0 619 -165 1062 -1087 1958 -2481 2410 -409 132 -832 218 -1315
266 -157 15 -784 27 -935 18z m785 -305 c1605 -101 3020 -853 3511 -1864 91
-188 146 -356 181 -555 17 -101 17 -460 0 -560 -36 -200 -89 -363 -178 -545
-278 -572 -846 -1073 -1599 -1410 -532 -239 -1070 -378 -1750 -452 -229 -25
-969 -25 -1200 0 -690 75 -1264 226 -1790 471 -1004 466 -1634 1185 -1740
1985 -184 1377 1262 2632 3339 2895 406 52 785 63 1226 35z"/>
<path d="M4676 6344 c-22 -643 -46 -834 -130 -1033 -49 -115 -105 -198 -191
-279 -231 -220 -563 -227 -827 -17 -102 82 -195 229 -234 370 -25 92 -30 292
-10 397 31 162 105 348 204 508 22 36 39 66 37 68 -6 7 -375 -121 -528 -184
-511 -207 -916 -462 -1218 -763 -188 -189 -297 -337 -400 -546 -291 -592 -196
-1238 266 -1810 134 -166 357 -371 555 -511 144 -102 434 -274 462 -274 4 0
-5 27 -22 59 -47 94 -108 254 -137 359 -23 85 -26 117 -27 257 -1 144 1 166
22 216 34 86 78 144 135 182 72 48 120 61 212 61 101 -1 186 -23 300 -80 128
-64 244 -154 385 -301 68 -70 125 -123 127 -116 16 46 160 242 232 314 115
115 191 153 306 154 69 0 89 -4 145 -31 162 -77 299 -243 451 -546 82 -164
139 -304 224 -551 l71 -207 57 172 c78 233 134 374 221 553 157 323 298 499
466 579 56 27 76 31 145 31 115 -1 190 -39 305 -154 73 -72 217 -266 232 -313
3 -7 67 52 144 129 223 225 374 319 578 359 74 15 97 15 152 5 127 -23 209
-82 262 -188 39 -77 52 -143 52 -262 0 -172 -51 -368 -151 -580 -27 -57 -49
-105 -49 -107 0 -5 225 119 303 168 275 171 555 414 728 629 432 540 541 1160
301 1718 -100 232 -234 424 -437 627 -157 157 -251 233 -455 369 -249 164
-460 274 -775 402 -155 63 -514 188 -520 181 -2 -2 12 -28 31 -58 94 -147 172
-335 204 -491 29 -138 24 -337 -10 -444 -48 -152 -143 -290 -254 -369 -211
-151 -439 -175 -656 -70 -97 48 -226 175 -287 284 -51 90 -107 254 -127 371
-22 123 -54 648 -56 899 l-1 65 -16 -30 c-9 -16 -60 -124 -112 -239 l-96 -208
-180 0 -180 0 -95 209 c-142 307 -126 299 -134 67z"/>
</g>
</svg>
