<?xml version="1.0" standalone="no"?>
<!DOCTYPE svg PUBLIC "-//W3C//DTD SVG 20010904//EN"
 "http://www.w3.org/TR/2001/REC-SVG-20010904/DTD/svg10.dtd">
<svg version="1.0" xmlns="http://www.w3.org/2000/svg"
 width="800.000000pt" height="800.000000pt" viewBox="0 0 800.000000 800.000000"
 preserveAspectRatio="xMidYMid meet">
<metadata>
Created by potrace 1.12, written by Peter Selinger 2001-2015
</metadata>
<g transform="translate(0.000000,800.000000) scale(0.100000,-0.100000)"
fill="#000000" stroke="none">
<path d="M2795 6361 c-45 -27 -156 -147 -205 -221 -23 -36 -85 -121 -136 -190
-85 -115 -142 -220 -129 -240 13 -21 -113 -252 -201 -365 -69 -89 -159 -168
-183 -161 -126 36 -167 52 -231 91 -91 57 -326 231 -399 297 -54 50 -110 82
-200 117 -45 19 -55 19 -145 6 -137 -19 -168 -39 -240 -160 -62 -104 -100
-215 -111 -325 -4 -36 -15 -102 -26 -148 -17 -76 -17 -85 -3 -121 14 -36 14
-43 -6 -100 -51 -151 -79 -464 -85 -932 -2 -97 -8 -192 -14 -210 -6 -19 -15
-65 -20 -104 -5 -38 -17 -93 -28 -121 -19 -52 -19 -53 3 -230 13 -99 27 -192
33 -209 6 -16 18 -68 26 -115 9 -47 27 -121 40 -165 21 -67 30 -83 57 -101 69
-43 210 -83 368 -104 85 -12 180 -27 210 -35 30 -7 102 -18 160 -24 307 -33
1098 -162 1390 -227 85 -19 247 -53 360 -75 113 -22 219 -46 235 -53 17 -8
188 -46 380 -85 270 -54 405 -76 590 -96 132 -14 258 -27 280 -30 22 -2 67 -7
100 -11 33 -3 123 -14 199 -25 305 -42 710 -8 1201 101 121 26 299 62 395 80
332 60 927 235 1068 314 82 45 164 131 194 201 28 67 51 186 50 255 -1 109
-50 501 -70 566 -34 108 -77 162 -213 263 -130 98 -194 130 -476 237 -302 114
-432 157 -690 225 -438 114 -590 175 -709 282 -27 25 -65 52 -85 60 -38 16
-88 73 -109 126 -14 35 -87 99 -137 120 -17 7 -44 33 -61 60 -32 48 -148 151
-216 191 -20 12 -36 26 -36 31 0 12 -127 93 -187 119 -34 14 -69 43 -115 94
-57 62 -79 78 -151 111 -67 30 -88 45 -102 72 -25 47 -123 135 -179 162 -31
15 -53 36 -70 66 -17 29 -52 62 -106 99 -43 31 -84 56 -90 56 -39 0 -267 189
-368 305 -33 39 -99 104 -145 147 -87 79 -146 108 -223 108 -34 0 -74 -37 -74
-67 0 -8 -3 -13 -7 -11 -142 72 -263 118 -313 118 -8 0 -28 -8 -45 -19z m149
-51 l29 -11 -53 -27 c-29 -15 -70 -43 -90 -63 -35 -34 -41 -36 -82 -32 -25 3
-55 0 -67 -6 -11 -7 -21 -9 -21 -5 0 10 121 136 145 152 22 14 92 10 139 -8z
m356 -26 c40 -12 73 -33 127 -81 75 -67 199 -201 192 -207 -2 -2 -33 1 -69 6
-67 10 -138 47 -303 156 -74 49 -78 62 -41 120 17 26 24 27 94 6z m-236 -25
c33 -17 84 -48 111 -69 28 -21 96 -66 153 -100 57 -34 102 -63 100 -65 -2 -2
-25 1 -53 5 -61 9 -143 -17 -190 -61 l-30 -28 -172 107 c-95 59 -172 111 -173
115 0 17 67 70 125 98 33 16 62 29 64 29 2 0 31 -14 65 -31z m-255 -120 c44
-25 312 -192 330 -206 2 -2 -17 -51 -44 -110 -64 -143 -74 -243 -25 -258 15
-5 30 2 53 22 18 16 51 40 73 53 21 13 46 31 56 40 9 9 36 34 61 54 l45 37 81
-57 c45 -31 81 -61 81 -65 0 -4 -23 -20 -51 -35 -135 -74 -166 -248 -49 -278
54 -13 110 8 221 83 l101 69 29 -17 c34 -19 36 -27 8 -36 -60 -19 -139 -131
-139 -197 0 -24 10 -42 37 -70 20 -21 44 -38 53 -38 31 0 124 52 179 99 100
86 99 85 154 44 26 -19 47 -39 47 -44 0 -5 -13 -15 -30 -24 -52 -27 -128 -112
-140 -156 -13 -46 -5 -95 18 -121 38 -44 192 1 296 86 77 62 96 66 146 26 22
-17 40 -34 40 -37 0 -3 -27 -33 -61 -66 -62 -63 -105 -130 -94 -148 4 -5 9
-26 11 -46 6 -48 17 -54 84 -47 80 8 97 15 184 78 87 63 124 70 163 34 l23
-21 -51 -49 c-87 -83 -123 -206 -63 -217 10 -1 26 -9 34 -17 19 -16 65 -21 98
-10 13 4 59 32 102 62 79 54 102 62 129 45 13 -8 11 -13 -7 -28 -11 -10 -32
-43 -44 -73 -44 -103 -8 -190 79 -190 57 0 97 18 154 68 l46 41 46 -47 47 -47
-34 -91 c-19 -50 -46 -131 -61 -180 -15 -49 -29 -91 -31 -93 -2 -2 -95 50
-206 116 -112 66 -314 177 -449 246 -135 69 -322 170 -415 225 -220 129 -1112
729 -1302 876 -171 132 -254 187 -372 246 -47 23 -86 43 -88 45 -10 9 35 88
103 180 45 61 99 136 120 168 40 61 102 107 144 107 13 0 49 -14 80 -31z m686
-142 c77 -12 139 -26 138 -30 -1 -4 -28 -44 -60 -88 -55 -75 -59 -79 -88 -73
-79 18 -120 -1 -239 -110 -22 -20 -43 -36 -47 -36 -4 0 -31 -19 -60 -41 -68
-54 -85 -47 -82 37 1 48 10 78 52 164 56 118 86 152 157 180 60 23 57 23 229
-3z m251 -108 c46 -39 84 -74 84 -78 0 -17 -48 -49 -80 -54 -19 -3 -73 -27
-121 -54 l-85 -50 -32 25 -31 24 32 56 c34 62 134 202 144 202 3 0 43 -32 89
-71z m141 -156 c21 -10 40 -18 42 -20 1 -1 -8 -17 -21 -35 -14 -18 -37 -54
-52 -81 -19 -32 -38 -52 -63 -62 -20 -8 -74 -42 -120 -75 -113 -81 -173 -110
-227 -110 -56 0 -86 32 -86 92 0 75 40 115 212 211 84 47 164 87 178 90 54 10
101 6 137 -10z m156 -48 c36 -25 72 -56 81 -70 16 -24 16 -27 -14 -64 -28 -34
-38 -39 -89 -45 -32 -4 -89 -16 -127 -26 -86 -25 -131 -15 -89 20 8 7 39 51
67 99 44 72 91 131 104 131 2 0 32 -20 67 -45z m-1413 -153 c36 -25 112 -83
170 -127 144 -113 185 -141 683 -476 480 -323 682 -446 980 -600 108 -57 197
-106 197 -111 0 -15 -110 -59 -191 -76 l-76 -16 -114 38 c-103 34 -444 189
-594 271 -178 96 -681 346 -750 373 -93 35 -217 56 -272 46 -53 -10 -189 -60
-248 -91 -27 -15 -102 -61 -165 -104 -191 -128 -318 -193 -514 -263 -132 -47
-216 -58 -441 -58 -156 0 -201 3 -255 18 l-65 19 -172 340 -171 340 14 110
c21 161 47 241 111 345 44 72 64 95 97 112 22 11 35 14 29 7 -30 -30 -7 -185
48 -328 45 -117 91 -197 151 -258 72 -73 146 -110 270 -133 148 -29 232 -17
370 51 101 49 278 170 330 226 67 72 193 257 250 368 l63 123 100 -50 c55 -28
129 -71 165 -96z m-1459 84 c41 -20 94 -57 119 -80 57 -55 301 -236 403 -300
48 -30 109 -57 158 -71 44 -13 82 -25 85 -28 11 -10 -138 -109 -230 -151 -132
-62 -210 -72 -350 -45 -57 11 -123 30 -151 45 -67 36 -149 117 -186 184 -49
88 -105 248 -119 336 -13 78 -12 83 9 112 39 55 151 54 262 -2z m3147 -171
c33 -30 65 -68 72 -85 10 -24 31 -39 104 -74 93 -44 176 -113 176 -146 0 -9
-12 -39 -26 -68 -24 -49 -28 -52 -63 -52 -21 0 -58 -2 -82 -5 -39 -5 -48 -2
-77 25 l-32 30 40 80 c63 125 53 145 -69 145 -57 -1 -95 -8 -151 -28 -68 -24
-76 -25 -97 -12 -13 9 -23 17 -23 19 0 2 16 30 35 62 19 32 35 62 35 67 0 5
14 34 31 63 36 63 36 63 127 -21z m-156 43 c14 -12 12 -21 -20 -88 l-37 -75
-57 -5 c-53 -5 -64 -10 -134 -69 -42 -35 -101 -74 -132 -86 l-57 -24 -37 37
c-45 43 -47 65 -13 130 35 66 43 75 105 110 87 48 156 64 351 81 8 0 22 -5 31
-11z m287 -224 c12 -11 9 -24 -25 -91 -37 -73 -42 -78 -84 -90 -26 -7 -66 -31
-96 -57 -28 -24 -77 -55 -110 -69 -133 -54 -184 -43 -184 39 0 65 25 110 87
159 69 54 129 84 223 111 81 24 163 23 189 -2z m412 -235 c30 -18 62 -39 72
-47 22 -19 23 -85 1 -158 l-16 -55 -71 7 c-50 4 -78 12 -93 26 l-22 19 20 62
c14 43 18 82 16 128 -4 77 -5 77 93 18z m-4064 -362 c95 -188 195 -400 222
-472 104 -277 155 -405 217 -548 35 -81 64 -152 64 -156 0 -10 -112 17 -377
90 -198 55 -323 101 -368 137 l-28 22 7 248 c3 136 8 267 10 292 2 25 7 106
11 180 7 145 32 291 66 381 19 52 19 58 5 100 -17 49 -20 69 -8 69 4 0 85
-154 179 -343z m3905 331 c54 -16 61 -34 39 -99 -16 -48 -21 -54 -43 -51 -35
4 -86 -18 -150 -66 -76 -57 -93 -64 -168 -69 l-67 -5 -6 52 c-8 66 3 87 81
165 44 43 73 63 104 71 57 16 161 17 210 2z m464 -211 c23 -28 31 -71 16 -93
-11 -16 -144 -84 -166 -84 -17 0 -18 5 -12 48 17 114 25 222 19 239 -8 21 108
-68 143 -110z m-2271 1 c53 -17 243 -107 465 -220 426 -217 546 -277 710 -353
131 -60 288 -115 330 -115 53 0 163 31 236 67 63 30 75 33 96 23 57 -30 199
-113 203 -120 3 -4 -22 -32 -53 -63 -41 -38 -93 -72 -173 -112 -199 -100 -243
-109 -400 -79 -198 37 -229 51 -994 427 -271 134 -465 223 -505 233 -131 33
-220 5 -415 -128 -110 -76 -369 -211 -513 -270 -159 -64 -193 -69 -488 -75
l-271 -6 -41 104 c-57 144 -92 239 -87 239 2 0 15 -4 29 -10 56 -21 226 -30
393 -20 200 12 194 11 325 55 150 52 343 150 517 265 84 55 169 109 189 119
42 21 184 68 222 74 51 7 138 -6 225 -35z m1981 -32 c34 -7 75 -22 91 -34 25
-17 29 -26 25 -52 -3 -21 -12 -34 -28 -40 -27 -11 -130 -76 -160 -102 -11 -10
-41 -21 -66 -24 -40 -6 -47 -4 -57 15 -7 13 -21 21 -36 21 -22 0 -25 5 -25 33
0 74 106 197 169 197 14 -1 54 -7 87 -14z m413 -85 c32 -17 111 -92 111 -106
0 -2 -33 -25 -72 -51 -40 -25 -98 -70 -128 -99 -66 -62 -126 -95 -174 -95 -28
0 -40 7 -60 33 -32 42 -33 81 -2 150 25 58 70 94 195 155 75 37 80 38 130 13z
m-2424 -244 c33 -14 240 -114 460 -222 718 -354 747 -367 932 -411 111 -26
204 -30 267 -13 22 6 100 39 173 74 112 54 143 74 200 129 40 40 73 64 82 61
38 -15 201 -117 201 -126 0 -6 -22 -74 -49 -152 -57 -163 -134 -417 -181 -593
l-32 -121 -111 -6 c-136 -8 -578 7 -817 27 -190 17 -360 37 -745 91 -137 19
-286 40 -330 46 -44 6 -186 31 -315 55 -275 51 -607 106 -985 164 -148 23
-272 43 -274 45 -12 12 -201 466 -201 484 0 4 118 11 263 14 215 5 274 9 332
25 177 49 499 202 665 317 110 76 194 123 245 136 50 14 156 2 220 -24z m2727
-50 c141 -119 256 -165 718 -288 272 -72 336 -93 620 -199 265 -99 420 -169
482 -217 32 -24 58 -48 58 -52 0 -22 -65 -105 -107 -135 -126 -93 -599 -237
-958 -291 -121 -18 -296 -45 -390 -59 -173 -26 -678 -70 -927 -81 -117 -5
-138 -3 -138 9 0 13 63 245 105 386 25 85 213 653 252 765 49 137 66 162 133
190 30 12 63 23 72 24 9 0 45 -23 80 -52z m-5038 -695 c77 -69 617 -213 1056
-282 391 -61 781 -126 985 -165 310 -59 1175 -177 1435 -196 326 -23 646 -27
1000 -13 475 19 759 44 1145 103 182 27 350 53 375 56 91 13 498 129 625 177
73 28 156 68 190 92 51 35 110 103 128 148 8 18 47 -28 47 -54 0 -42 -79 -117
-170 -163 -197 -99 -394 -173 -611 -231 -199 -52 -244 -60 -638 -110 -445 -57
-723 -79 -1111 -89 -129 -3 -325 -13 -435 -21 -213 -17 -347 -14 -570 12 -405
46 -672 84 -1120 159 -904 152 -1158 195 -1310 225 -82 16 -190 36 -240 45
-191 34 -479 97 -572 126 -172 54 -266 122 -248 179 8 25 13 25 39 2z m19
-133 c114 -70 321 -123 937 -238 378 -71 1845 -319 1985 -335 28 -3 70 -8 95
-11 25 -3 151 -18 280 -35 290 -36 493 -46 665 -31 72 6 256 15 410 21 562 20
777 39 1500 134 163 22 509 117 666 182 278 117 350 156 400 215 25 30 51 63
57 74 10 17 11 13 12 -25 0 -44 -15 -78 -57 -126 -35 -41 -110 -81 -283 -154
-153 -63 -211 -81 -460 -141 -471 -114 -744 -152 -1285 -179 -1217 -60 -1308
-61 -1690 -16 -565 67 -480 53 -1835 300 -1047 192 -1234 232 -1361 296 -63
32 -109 80 -109 113 1 19 2 20 10 5 6 -9 34 -31 63 -49z m26 -99 c112 -56 321
-104 981 -225 1554 -285 1720 -314 1955 -339 28 -3 145 -18 260 -32 116 -14
284 -29 375 -33 172 -8 208 -6 1000 34 267 13 550 27 630 31 80 3 226 19 325
34 99 16 216 34 260 40 44 7 161 31 260 55 99 24 232 55 295 70 125 30 454
159 530 208 49 32 107 92 116 120 6 20 24 23 24 4 0 -29 -65 -99 -142 -153
-67 -47 -110 -67 -247 -114 -258 -90 -646 -182 -966 -230 -234 -35 -790 -96
-1040 -115 -79 -6 -120 -9 -285 -20 -226 -16 -443 -67 -557 -131 -76 -42 -173
-128 -220 -193 -46 -64 -101 -198 -132 -321 l-27 -105 -294 61 c-162 33 -304
66 -315 72 -11 7 -105 28 -210 48 -104 20 -291 58 -415 84 -124 27 -292 60
-375 74 -371 64 -661 110 -925 146 -602 83 -703 102 -827 161 -35 17 -44 28
-57 67 -21 62 -74 299 -86 382 -43 292 -43 283 -18 344 l23 55 30 -28 c16 -16
50 -39 74 -51z m7071 -70 c10 -36 31 -175 45 -309 27 -240 27 -245 10 -335 -9
-50 -25 -109 -35 -131 -30 -66 -104 -140 -182 -183 -149 -81 -718 -246 -1098
-317 -107 -20 -271 -54 -365 -75 -188 -42 -448 -83 -625 -100 -180 -17 -449
-15 -566 4 -89 14 -333 42 -524 61 -187 18 -312 34 -317 38 -10 11 49 213 89
305 33 76 54 108 115 173 96 101 192 157 341 197 140 38 206 48 517 72 834 65
1317 131 1736 235 460 116 674 207 771 328 31 41 38 57 38 95 1 44 2 46 16 27
8 -11 23 -49 34 -85z"/>
</g>
</svg>
