<?xml version="1.0" encoding="UTF-8"?>
<!DOCTYPE svg PUBLIC "-//W3C//DTD SVG 1.1//EN" "http://www.w3.org/Graphics/SVG/1.1/DTD/svg11.dtd">
<svg version="1.1" xmlns="http://www.w3.org/2000/svg" xmlns:xlink="http://www.w3.org/1999/xlink" x="0" y="0" width="800" height="600" viewBox="0, 0, 800, 600">
  <g id="Layer_2" >
    <path d="M269.297,76.057 C264.797,78.757 253.697,90.757 248.797,98.157 C246.497,101.757 240.297,110.257 235.197,117.157 C226.697,128.657 220.997,139.157 222.297,141.157 C223.597,143.257 210.997,166.357 202.197,177.657 C195.297,186.557 186.297,194.457 183.897,193.757 C171.297,190.157 167.197,188.557 160.797,184.657 C151.697,178.957 128.197,161.557 120.897,154.957 C115.497,149.957 109.897,146.757 100.897,143.257 C96.397,141.357 95.397,141.357 86.397,142.657 C72.697,144.557 69.597,146.557 62.397,158.657 C56.197,169.057 52.397,180.157 51.297,191.157 C50.897,194.757 49.797,201.357 48.697,205.957 C46.997,213.557 46.997,214.457 48.397,218.057 C49.797,221.657 49.797,222.357 47.797,228.057 C42.697,243.157 39.897,274.457 39.297,321.257 C39.097,330.957 38.497,340.457 37.897,342.257 C37.297,344.157 36.397,348.757 35.897,352.657 C35.397,356.457 34.197,361.957 33.097,364.757 C31.197,369.957 31.197,370.057 33.397,387.757 C34.697,397.657 36.097,406.957 36.697,408.657 C37.297,410.257 38.497,415.457 39.297,420.157 C40.197,424.857 41.997,432.257 43.297,436.657 C45.397,443.357 46.297,444.957 48.997,446.757 C55.897,451.057 69.997,455.057 85.797,457.157 C94.297,458.357 103.797,459.857 106.797,460.657 C109.797,461.357 116.997,462.457 122.797,463.057 C153.497,466.357 232.597,479.257 261.797,485.757 C270.297,487.657 286.497,491.057 297.797,493.257 C309.097,495.457 319.697,497.857 321.297,498.557 C322.997,499.357 340.097,503.157 359.297,507.057 C386.297,512.457 399.797,514.657 418.297,516.657 C431.497,518.057 444.097,519.357 446.297,519.657 C448.497,519.857 452.997,520.357 456.297,520.757 C459.597,521.057 468.597,522.157 476.197,523.257 C506.697,527.457 547.197,524.057 596.297,513.157 C608.397,510.557 626.197,506.957 635.797,505.157 C668.997,499.157 728.497,481.657 742.597,473.757 C750.797,469.257 758.997,460.657 761.997,453.657 C764.797,446.957 767.097,435.057 766.997,428.157 C766.897,417.257 761.997,378.057 759.997,371.557 C756.597,360.757 752.297,355.357 738.697,345.257 C725.697,335.457 719.297,332.257 691.097,321.557 C660.897,310.157 647.897,305.857 622.097,299.057 C578.297,287.657 563.097,281.557 551.197,270.857 C548.497,268.357 544.697,265.657 542.697,264.857 C538.897,263.257 533.897,257.557 531.797,252.257 C530.397,248.757 523.097,242.357 518.097,240.257 C516.397,239.557 513.697,236.957 511.997,234.257 C508.797,229.457 497.197,219.157 490.397,215.157 C488.397,213.957 486.797,212.557 486.797,212.057 C486.797,210.857 474.097,202.757 468.097,200.157 C464.697,198.757 461.197,195.857 456.597,190.757 C450.897,184.557 448.697,182.957 441.497,179.657 C434.797,176.657 432.697,175.157 431.297,172.457 C428.797,167.757 418.997,158.957 413.397,156.257 C410.297,154.757 408.097,152.657 406.397,149.657 C404.697,146.757 401.197,143.457 395.797,139.757 C391.497,136.657 387.397,134.157 386.797,134.157 C382.897,134.157 360.097,115.257 349.997,103.657 C346.697,99.757 340.097,93.257 335.497,88.957 C326.797,81.057 320.897,78.157 313.197,78.157 C309.797,78.157 305.797,81.857 305.797,84.857 C305.797,85.657 305.497,86.157 305.097,85.957 C290.897,78.757 278.797,74.157 273.797,74.157 C272.997,74.157 270.997,74.957 269.297,76.057 z M284.197,81.157 L287.097,82.257 L281.797,84.957 C278.897,86.457 274.797,89.257 272.797,91.257 C269.297,94.657 268.697,94.857 264.597,94.457 C262.097,94.157 259.097,94.457 257.897,95.057 C256.797,95.757 255.797,95.957 255.797,95.557 C255.797,94.557 267.897,81.957 270.297,80.357 C272.497,78.957 279.497,79.357 284.197,81.157 z M319.797,83.757 C323.797,84.957 327.097,87.057 332.497,91.857 C339.997,98.557 352.397,111.957 351.697,112.557 C351.497,112.757 348.397,112.457 344.797,111.957 C338.097,110.957 330.997,107.257 314.497,96.357 C307.097,91.457 306.697,90.157 310.397,84.357 C312.097,81.757 312.797,81.657 319.797,83.757 z M296.197,86.257 C299.497,87.957 304.597,91.057 307.297,93.157 C310.097,95.257 316.897,99.757 322.597,103.157 C328.297,106.557 332.797,109.457 332.597,109.657 C332.397,109.857 330.097,109.557 327.297,109.157 C321.197,108.257 312.997,110.857 308.297,115.257 L305.297,118.057 L288.097,107.357 C278.597,101.457 270.897,96.257 270.797,95.857 C270.797,94.157 277.497,88.857 283.297,86.057 C286.597,84.457 289.497,83.157 289.697,83.157 C289.897,83.157 292.797,84.557 296.197,86.257 z M270.697,98.257 C275.097,100.757 301.897,117.457 303.697,118.857 C303.897,119.057 301.997,123.957 299.297,129.857 C292.897,144.157 291.897,154.157 296.797,155.657 C298.297,156.157 299.797,155.457 302.097,153.457 C303.897,151.857 307.197,149.457 309.397,148.157 C311.497,146.857 313.997,145.057 314.997,144.157 C315.897,143.257 318.597,140.757 321.097,138.757 L325.597,135.057 L333.697,140.757 C338.197,143.857 341.797,146.857 341.797,147.257 C341.797,147.657 339.497,149.257 336.697,150.757 C323.197,158.157 320.097,175.557 331.797,178.557 C337.197,179.857 342.797,177.757 353.897,170.257 L363.997,163.357 L366.897,165.057 C370.297,166.957 370.497,167.757 367.697,168.657 C361.697,170.557 353.797,181.757 353.797,188.357 C353.797,190.757 354.797,192.557 357.497,195.357 C359.497,197.457 361.897,199.157 362.797,199.157 C365.897,199.157 375.197,193.957 380.697,189.257 C390.697,180.657 390.597,180.757 396.097,184.857 C398.697,186.757 400.797,188.757 400.797,189.257 C400.797,189.757 399.497,190.757 397.797,191.657 C392.597,194.357 384.997,202.857 383.797,207.257 C382.497,211.857 383.297,216.757 385.597,219.357 C389.397,223.757 404.797,219.257 415.197,210.757 C422.897,204.557 424.797,204.157 429.797,208.157 C431.997,209.857 433.797,211.557 433.797,211.857 C433.797,212.157 431.097,215.157 427.697,218.457 C421.497,224.757 417.197,231.457 418.297,233.257 C418.697,233.757 419.197,235.857 419.397,237.857 C419.997,242.657 421.097,243.257 427.797,242.557 C435.797,241.757 437.497,241.057 446.197,234.757 C454.897,228.457 458.597,227.757 462.497,231.357 L464.797,233.457 L459.697,238.357 C450.997,246.657 447.397,258.957 453.397,260.057 C454.397,260.157 455.997,260.957 456.797,261.757 C458.697,263.357 463.297,263.857 466.597,262.757 C467.897,262.357 472.497,259.557 476.797,256.557 C484.697,251.157 486.997,250.357 489.697,252.057 C490.997,252.857 490.797,253.357 488.997,254.857 C487.897,255.857 485.797,259.157 484.597,262.157 C480.197,272.457 483.797,281.157 492.497,281.157 C498.197,281.157 502.197,279.357 507.897,274.357 L512.497,270.257 L517.097,274.957 L521.797,279.657 L518.397,288.757 C516.497,293.757 513.797,301.857 512.297,306.757 C510.797,311.657 509.397,315.857 509.197,316.057 C508.997,316.257 499.697,311.057 488.597,304.457 C477.397,297.857 457.197,286.757 443.697,279.857 C430.197,272.957 411.497,262.857 402.197,257.357 C380.197,244.457 290.997,184.457 271.997,169.757 C254.897,156.557 246.597,151.057 234.797,145.157 C230.097,142.857 226.197,140.857 225.997,140.657 C224.997,139.757 229.497,131.857 236.297,122.657 C240.797,116.557 246.197,109.057 248.297,105.857 C252.297,99.757 258.497,95.157 262.697,95.157 C263.997,95.157 267.597,96.557 270.697,98.257 z M339.297,112.457 C346.997,113.657 353.197,115.057 353.097,115.457 C352.997,115.857 350.297,119.857 347.097,124.257 C341.597,131.757 341.197,132.157 338.297,131.557 C330.397,129.757 326.297,131.657 314.397,142.557 C312.197,144.557 310.097,146.157 309.697,146.157 C309.297,146.157 306.597,148.057 303.697,150.257 C296.897,155.657 295.197,154.957 295.497,146.557 C295.597,141.757 296.497,138.757 300.697,130.157 C306.297,118.357 309.297,114.957 316.397,112.157 C322.397,109.857 322.097,109.857 339.297,112.457 z M364.397,123.257 C368.997,127.157 372.797,130.657 372.797,131.057 C372.797,132.757 367.997,135.957 364.797,136.457 C362.897,136.757 357.497,139.157 352.697,141.857 L344.197,146.857 L340.997,144.357 L337.897,141.957 L341.097,136.357 C344.497,130.157 354.497,116.157 355.497,116.157 C355.797,116.157 359.797,119.357 364.397,123.257 z M378.497,138.857 C380.597,139.857 382.497,140.657 382.697,140.857 C382.797,140.957 381.897,142.557 380.597,144.357 C379.197,146.157 376.897,149.757 375.397,152.457 C373.497,155.657 371.597,157.657 369.097,158.657 C367.097,159.457 361.697,162.857 357.097,166.157 C345.797,174.257 339.797,177.157 334.397,177.157 C328.797,177.157 325.797,173.957 325.797,167.957 C325.797,160.457 329.797,156.457 346.997,146.857 C355.397,142.157 363.397,138.157 364.797,137.857 C370.197,136.857 374.897,137.257 378.497,138.857 z M394.097,143.657 C397.697,146.157 401.297,149.257 402.197,150.657 C403.797,153.057 403.797,153.357 400.797,157.057 C397.997,160.457 396.997,160.957 391.897,161.557 C388.697,161.957 382.997,163.157 379.197,164.157 C370.597,166.657 366.097,165.657 370.297,162.157 C371.097,161.457 374.197,157.057 376.997,152.257 C381.397,145.057 386.097,139.157 387.397,139.157 C387.597,139.157 390.597,141.157 394.097,143.657 z M252.797,158.957 C256.397,161.457 263.997,167.257 269.797,171.657 C284.197,182.957 288.297,185.757 338.097,219.257 C386.097,251.557 406.297,263.857 436.097,279.257 C446.897,284.957 455.797,289.857 455.797,290.357 C455.797,291.857 444.797,296.257 436.697,297.957 L429.097,299.557 L417.697,295.757 C407.397,292.357 373.297,276.857 358.297,268.657 C340.497,259.057 290.197,234.057 283.297,231.357 C273.997,227.857 261.597,225.757 256.097,226.757 C250.797,227.757 237.197,232.757 231.297,235.857 C228.597,237.357 221.097,241.957 214.797,246.257 C195.697,259.057 182.997,265.557 163.397,272.557 C150.197,277.257 141.797,278.357 119.297,278.357 C103.697,278.357 99.197,278.057 93.797,276.557 L87.297,274.657 L70.097,240.657 L52.997,206.657 L54.397,195.657 C56.497,179.557 59.097,171.557 65.497,161.157 C69.897,153.957 71.897,151.657 75.197,149.957 C77.397,148.857 78.697,148.557 78.097,149.257 C75.097,152.257 77.397,167.757 82.897,182.057 C87.397,193.757 91.997,201.757 97.997,207.857 C105.197,215.157 112.597,218.857 124.997,221.157 C139.797,224.057 148.197,222.857 161.997,216.057 C172.097,211.157 189.797,199.057 194.997,193.457 C201.697,186.257 214.297,167.757 219.997,156.657 L226.297,144.357 L236.297,149.357 C241.797,152.157 249.197,156.457 252.797,158.957 z M106.897,150.557 C110.997,152.557 116.297,156.257 118.797,158.557 C124.497,164.057 148.897,182.157 159.097,188.557 C163.897,191.557 169.997,194.257 174.897,195.657 C179.297,196.957 183.097,198.157 183.397,198.457 C184.497,199.457 169.597,209.357 160.397,213.557 C147.197,219.757 139.397,220.757 125.397,218.057 C119.697,216.957 113.097,215.057 110.297,213.557 C103.597,209.957 95.397,201.857 91.697,195.157 C86.797,186.357 81.197,170.357 79.797,161.557 C78.497,153.757 78.597,153.257 80.697,150.357 C84.597,144.857 95.797,144.957 106.897,150.557 z M421.597,167.657 C424.897,170.657 428.097,174.457 428.797,176.157 C429.797,178.557 431.897,180.057 439.197,183.557 C448.497,187.957 456.797,194.857 456.797,198.157 C456.797,199.057 455.597,202.057 454.197,204.957 C451.797,209.857 451.397,210.157 447.897,210.157 C445.797,210.157 442.097,210.357 439.697,210.657 C435.797,211.157 434.897,210.857 431.997,208.157 L428.797,205.157 L432.797,197.157 C439.097,184.657 438.097,182.657 425.897,182.657 C420.197,182.757 416.397,183.457 410.797,185.457 C403.997,187.857 403.197,187.957 401.097,186.657 C399.797,185.757 398.797,184.957 398.797,184.757 C398.797,184.557 400.397,181.757 402.297,178.557 C404.197,175.357 405.797,172.357 405.797,171.857 C405.797,171.357 407.197,168.457 408.897,165.557 C412.497,159.257 412.497,159.257 421.597,167.657 z M405.997,163.357 C407.397,164.557 407.197,165.457 403.997,172.157 L400.297,179.657 L394.597,180.157 C389.297,180.657 388.197,181.157 381.197,187.057 C376.997,190.557 371.097,194.457 367.997,195.657 L362.297,198.057 L358.597,194.357 C354.097,190.057 353.897,187.857 357.297,181.357 C360.797,174.757 361.597,173.857 367.797,170.357 C376.497,165.557 383.397,163.957 402.897,162.257 C403.697,162.257 405.097,162.757 405.997,163.357 z M434.697,185.757 C435.897,186.857 435.597,188.157 432.197,194.857 C428.497,202.157 427.997,202.657 423.797,203.857 C421.197,204.557 417.197,206.957 414.197,209.557 C411.397,211.957 406.497,215.057 403.197,216.457 C389.897,221.857 384.797,220.757 384.797,212.557 C384.797,206.057 387.297,201.557 393.497,196.657 C400.397,191.257 406.397,188.257 415.797,185.557 C423.897,183.157 432.097,183.257 434.697,185.757 z M475.897,209.257 C478.897,211.057 482.097,213.157 483.097,213.957 C485.297,215.857 485.397,222.457 483.197,229.757 L481.597,235.257 L474.497,234.557 C469.497,234.157 466.697,233.357 465.197,231.957 L462.997,230.057 L464.997,223.857 C466.397,219.557 466.797,215.657 466.597,211.057 C466.197,203.357 466.097,203.357 475.897,209.257 z M69.497,245.457 C78.997,264.257 88.997,285.457 91.697,292.657 C102.097,320.357 107.197,333.157 113.397,347.457 C116.897,355.557 119.797,362.657 119.797,363.057 C119.797,364.057 108.597,361.357 82.097,354.057 C62.297,348.557 49.797,343.957 45.297,340.357 L42.497,338.157 L43.197,313.357 C43.497,299.757 43.997,286.657 44.197,284.157 C44.397,281.657 44.897,273.557 45.297,266.157 C45.997,251.657 48.497,237.057 51.897,228.057 C53.797,222.857 53.797,222.257 52.397,218.057 C50.697,213.157 50.397,211.157 51.597,211.157 C51.997,211.157 60.097,226.557 69.497,245.457 z M459.997,212.357 C465.397,213.957 466.097,215.757 463.897,222.257 C462.297,227.057 461.797,227.657 459.597,227.357 C456.097,226.957 450.997,229.157 444.597,233.957 C436.997,239.657 435.297,240.357 427.797,240.857 L421.097,241.357 L420.497,236.157 C419.697,229.557 420.797,227.457 428.597,219.657 C432.997,215.357 435.897,213.357 438.997,212.557 C444.697,210.957 455.097,210.857 459.997,212.357 z M506.397,233.457 C508.697,236.257 509.497,240.557 507.997,242.757 C506.897,244.357 493.597,251.157 491.397,251.157 C489.697,251.157 489.597,250.657 490.197,246.357 C491.897,234.957 492.697,224.157 492.097,222.457 C491.297,220.357 502.897,229.257 506.397,233.457 z M279.297,233.357 C284.597,235.057 303.597,244.057 325.797,255.357 C368.397,277.057 380.397,283.057 396.797,290.657 C409.897,296.657 425.597,302.157 429.797,302.157 C435.097,302.157 446.097,299.057 453.397,295.457 C459.697,292.457 460.897,292.157 462.997,293.157 C468.697,296.157 482.897,304.457 483.297,305.157 C483.597,305.557 481.097,308.357 477.997,311.457 C473.897,315.257 468.697,318.657 460.697,322.657 C440.797,332.657 436.397,333.557 420.697,330.557 C400.897,326.857 397.797,325.457 321.297,287.857 C294.197,274.457 274.797,265.557 270.797,264.557 C257.697,261.257 248.797,264.057 229.297,277.357 C218.297,284.957 192.397,298.457 177.997,304.357 C162.097,310.757 158.697,311.257 129.197,311.857 L102.097,312.457 L97.997,302.057 C92.297,287.657 88.797,278.157 89.297,278.157 C89.497,278.157 90.797,278.557 92.197,279.157 C97.797,281.257 114.797,282.157 131.497,281.157 C151.497,279.957 150.897,280.057 163.997,275.657 C178.997,270.457 198.297,260.657 215.697,249.157 C224.097,243.657 232.597,238.257 234.597,237.257 C238.797,235.157 252.997,230.457 256.797,229.857 C261.897,229.157 270.597,230.457 279.297,233.357 z M477.397,236.557 C480.797,237.257 484.897,238.757 486.497,239.957 C488.997,241.657 489.397,242.557 488.997,245.157 C488.697,247.257 487.797,248.557 486.197,249.157 C483.497,250.257 473.197,256.757 470.197,259.357 C469.097,260.357 466.097,261.457 463.597,261.757 C459.597,262.357 458.897,262.157 457.897,260.257 C457.197,258.957 455.797,258.157 454.297,258.157 C452.097,258.157 451.797,257.657 451.797,254.857 C451.797,247.457 462.397,235.157 468.697,235.157 C470.097,235.257 474.097,235.857 477.397,236.557 z M518.697,245.057 C521.897,246.757 529.797,254.257 529.797,255.657 C529.797,255.857 526.497,258.157 522.597,260.757 C518.597,263.257 512.797,267.757 509.797,270.657 C503.197,276.857 497.197,280.157 492.397,280.157 C489.597,280.157 488.397,279.457 486.397,276.857 C483.197,272.657 483.097,268.757 486.197,261.857 C488.697,256.057 493.197,252.457 505.697,246.357 C513.197,242.657 513.697,242.557 518.697,245.057 z M276.297,269.457 C279.597,270.857 300.297,280.857 322.297,291.657 C394.097,327.057 396.997,328.357 415.497,332.757 C426.597,335.357 435.897,335.757 442.197,334.057 C444.397,333.457 452.197,330.157 459.497,326.657 C470.697,321.257 473.797,319.257 479.497,313.757 C483.497,309.757 486.797,307.357 487.697,307.657 C491.497,309.157 507.797,319.357 507.797,320.257 C507.797,320.857 505.597,327.657 502.897,335.457 C497.197,351.757 489.497,377.157 484.797,394.757 L481.597,406.857 L470.497,407.457 C456.897,408.257 412.697,406.757 388.797,404.757 C369.797,403.057 352.797,401.057 314.297,395.657 C300.597,393.757 285.697,391.657 281.297,391.057 C276.897,390.457 262.697,387.957 249.797,385.557 C222.297,380.457 189.097,374.957 151.297,369.157 C136.497,366.857 124.097,364.857 123.897,364.657 C122.697,363.457 103.797,318.057 103.797,316.257 C103.797,315.857 115.597,315.157 130.097,314.857 C151.597,314.357 157.497,313.957 163.297,312.357 C180.997,307.457 213.197,292.157 229.797,280.657 C240.797,273.057 249.197,268.357 254.297,267.057 C259.297,265.657 269.897,266.857 276.297,269.457 z M548.997,274.457 C563.097,286.357 574.597,290.957 620.797,303.257 C647.997,310.457 654.397,312.557 682.797,323.157 C709.297,333.057 724.797,340.057 730.997,344.857 C734.197,347.257 736.797,349.657 736.797,350.057 C736.797,352.257 730.297,360.557 726.097,363.557 C713.497,372.857 666.197,387.257 630.297,392.657 C618.197,394.457 600.697,397.157 591.297,398.557 C573.997,401.157 523.497,405.557 498.597,406.657 C486.897,407.157 484.797,406.957 484.797,405.757 C484.797,404.457 491.097,381.257 495.297,367.157 C497.797,358.657 516.597,301.857 520.497,290.657 C525.397,276.957 527.097,274.457 533.797,271.657 C536.797,270.457 540.097,269.357 540.997,269.257 C541.897,269.257 545.497,271.557 548.997,274.457 z M45.197,343.957 C52.897,350.857 106.897,365.257 150.797,372.157 C189.897,378.257 228.897,384.757 249.297,388.657 C280.297,394.557 366.797,406.357 392.797,408.257 C425.397,410.557 457.397,410.957 492.797,409.557 C540.297,407.657 568.697,405.157 607.297,399.257 C625.497,396.557 642.297,393.957 644.797,393.657 C653.897,392.357 694.597,380.757 707.297,375.957 C714.597,373.157 722.897,369.157 726.297,366.757 C731.397,363.257 737.297,356.457 739.097,351.957 C739.897,350.157 743.797,354.757 743.797,357.357 C743.797,361.557 735.897,369.057 726.797,373.657 C707.097,383.557 687.397,390.957 665.697,396.757 C645.797,401.957 641.297,402.757 601.897,407.757 C557.397,413.457 529.597,415.657 490.797,416.657 C477.897,416.957 458.297,417.957 447.297,418.757 C425.997,420.457 412.597,420.157 390.297,417.557 C349.797,412.957 323.097,409.157 278.297,401.657 C187.897,386.457 162.497,382.157 147.297,379.157 C139.097,377.557 128.297,375.557 123.297,374.657 C104.197,371.257 75.397,364.957 66.097,362.057 C48.897,356.657 39.497,349.857 41.297,344.157 C42.097,341.657 42.597,341.657 45.197,343.957 z M47.097,357.257 C58.497,364.257 79.197,369.557 140.797,381.057 C178.597,388.157 325.297,412.957 339.297,414.557 C342.097,414.857 346.297,415.357 348.797,415.657 C351.297,415.957 363.897,417.457 376.797,419.157 C405.797,422.757 426.097,423.757 443.297,422.257 C450.497,421.657 468.897,420.757 484.297,420.157 C540.497,418.157 561.997,416.257 634.297,406.757 C650.597,404.557 685.197,395.057 700.897,388.557 C728.697,376.857 735.897,372.957 740.897,367.057 C743.397,364.057 745.997,360.757 746.597,359.657 C747.597,357.957 747.697,358.357 747.797,362.157 C747.797,366.557 746.297,369.957 742.097,374.757 C738.597,378.857 731.097,382.857 713.797,390.157 C698.497,396.457 692.697,398.257 667.797,404.257 C620.697,415.657 593.397,419.457 539.297,422.157 C417.597,428.157 408.497,428.257 370.297,423.757 C313.797,417.057 322.297,418.457 186.797,393.757 C82.097,374.557 63.397,370.557 50.697,364.157 C44.397,360.957 39.797,356.157 39.797,352.857 C39.897,350.957 39.997,350.857 40.797,352.357 C41.397,353.257 44.197,355.457 47.097,357.257 z M49.697,367.157 C60.897,372.757 81.797,377.557 147.797,389.657 C303.197,418.157 319.797,421.057 343.297,423.557 C346.097,423.857 357.797,425.357 369.297,426.757 C380.897,428.157 397.697,429.657 406.797,430.057 C423.997,430.857 427.597,430.657 506.797,426.657 C533.497,425.357 561.797,423.957 569.797,423.557 C577.797,423.257 592.397,421.657 602.297,420.157 C612.197,418.557 623.897,416.757 628.297,416.157 C632.697,415.457 644.397,413.057 654.297,410.657 C664.197,408.257 677.497,405.157 683.797,403.657 C696.297,400.657 729.197,387.757 736.797,382.857 C741.697,379.657 747.497,373.657 748.397,370.857 C748.997,368.857 750.797,368.557 750.797,370.457 C750.797,373.357 744.297,380.357 736.597,385.757 C729.897,390.457 725.597,392.457 711.897,397.157 C686.097,406.157 647.297,415.357 615.297,420.157 C591.897,423.657 536.297,429.757 511.297,431.657 C503.397,432.257 499.297,432.557 482.797,433.657 C460.197,435.257 438.497,440.357 427.097,446.757 C419.497,450.957 409.797,459.557 405.097,466.057 C400.497,472.457 394.997,485.857 391.897,498.157 L389.197,508.657 L359.797,502.557 C343.597,499.257 329.397,495.957 328.297,495.357 C327.197,494.657 317.797,492.557 307.297,490.557 C296.897,488.557 278.197,484.757 265.797,482.157 C253.397,479.457 236.597,476.157 228.297,474.757 C191.197,468.357 162.197,463.757 135.797,460.157 C75.597,451.857 65.497,449.957 53.097,444.057 C49.597,442.357 48.697,441.257 47.397,437.357 C45.297,431.157 39.997,407.457 38.797,399.157 C34.497,369.957 34.497,370.857 36.997,364.757 L39.297,359.257 L42.297,362.057 C43.897,363.657 47.297,365.957 49.697,367.157 z M756.797,374.157 C757.797,377.757 759.897,391.657 761.297,405.057 C763.997,429.057 763.997,429.557 762.297,438.557 C761.397,443.557 759.797,449.457 758.797,451.657 C755.797,458.257 748.397,465.657 740.597,469.957 C725.697,478.057 668.797,494.557 630.797,501.657 C620.097,503.657 603.697,507.057 594.297,509.157 C575.497,513.357 549.497,517.457 531.797,519.157 C513.797,520.857 486.897,520.657 475.197,518.757 C466.297,517.357 441.897,514.557 422.797,512.657 C404.097,510.857 391.597,509.257 391.097,508.857 C390.097,507.757 395.997,487.557 399.997,478.357 C403.297,470.757 405.397,467.557 411.497,461.057 C421.097,450.957 430.697,445.357 445.597,441.357 C459.597,437.557 466.197,436.557 497.297,434.157 C580.697,427.657 628.997,421.057 670.897,410.657 C716.897,399.057 738.297,389.957 747.997,377.857 C751.097,373.757 751.797,372.157 751.797,368.357 C751.897,363.957 751.997,363.757 753.397,365.657 C754.197,366.757 755.697,370.557 756.797,374.157 z" fill="#000000"/>
  </g>
  <g id="Layer_3">
    <path d="M83.335,276.56 C84.557,276.707 85.778,276.853 87,277 C112,280 119.297,278.357 119.297,278.357 L135,280 L163.397,272.557 L186,264 L206,254 L227,238 L250,230 L266,228 L283.297,231.357 L301,238 L317,251 L393,286 L417.697,295.757 L429.097,299.557 L436.697,297.957 L453.397,295.457 L455.797,290.357 L483.297,305.157 L471,317 L459.497,326.657 L442.197,334.057 L430,334 L406,329 L374,315 L348,301 L321.297,287.857 L298,277 L270.797,264.557 L240,271 L254.297,267.057 L222,280 L212,289 L188,301 L163.297,312.357 L142,311 L119,313 L102.097,312.457 L87,277" fill-opacity="0" stroke="#000000" stroke-width="1"/>
    <path d="M225.997,140.657 L236.297,149.357 L252.797,158.957 L264.5,167 L277,176 L294.5,187 L311,197.5 L328,210 L346,221.5 L363.5,233 L380.5,246 L405.5,260.5 L430.5,274.5 L455.5,286.5 L478.5,299.5 L498.5,311 L509.197,316.057 L484.797,405.757 L475,407 L447.5,408 L400.5,406 L376,403 L341.5,399.5 L305,393 L275.5,389.5 L241,383.5 L211.5,377.5 L186,373.5 L158,369 L138,366 L122,361.5 L113,339.5 L101,316.5 L93.5,295.5 L84.196,276.664 L76.5,257.5 L67,238 L60.5,223.5 L51.597,211.157 L50.5,202.5 L54,190.5 L59.5,170 L66,158 L75.197,149.957 L77,159.5 L79.5,172 L82.897,182.057 L87,191.5 L92.5,203.5 L100.5,211 L116,218 L129.5,220 L151,218.5 L170,209.5 L185.5,198.5 L200.5,184.5 L212,169 L221,152.5 L225.997,140.657 z" fill-opacity="0" stroke="#000000" stroke-width="1"/>
    <path d="M542.5,267 L531.5,272 L523,284 L512.297,306.757 L505,332 L497.5,354 L490.5,378 L487,393 L483.297,402.5 L481.597,406.857 L509.197,405 L531.5,403.5 L553,402 L574.5,400 L595.5,397 L616.5,393.5 L630.297,392.657 L647,388.5 L665.5,385 L683,379.5 L703.5,372 L715,368 L729,360 L734.5,353 L736.797,350.057 L724.5,342 L713,334.057 L697,328.5 L682.797,323.157 L665,316.5 L651.5,311 L633.5,305 L615.5,302 L595,294.5 L578.5,289 L563.5,283.5 L553,276.664 L542.5,267 z" fill-opacity="0" stroke="#000000" stroke-width="1"/>
    <path d="M50.5,212.255 L50.5,219.472 L50.5,224.283 L47.89,230.812 L45.828,242.839 L43.423,260.365 L42.735,274.798 L41.704,289.231 L41.361,306.069 L41.361,323.938 L41.017,334.057 L41.017,336.996 L50.5,343.526 L61.636,347.649 L75.037,351.429 L87,354.866 L98.405,358.302 L119.797,363.057 L115.93,349.024 L111.12,335.966 L105.278,323.595 L100.123,309.505 L93.938,293.011 L87.297,274.657 L79.161,259.678 L71.257,245.245 L64.041,230.468 L57.855,218.785 L53.388,210.881 L52.997,206.657 L50.5,212.255 z" fill-opacity="0" stroke="#000000" stroke-width="1"/>
    <path d="M86.397,142.657 L102.921,145.595 L117.236,154.184 L135,169.645 L152.165,181.097 L171.633,190.831 L183.897,193.757 L185.5,198.5 L170,209.5 L151,218.5 L122.39,218.316 L106.357,212.59 L92.614,198.847 L82.897,182.057 L79.444,167.927 L77.727,155.33 L80.017,146.741 L86.397,142.657 z" fill-opacity="0" stroke="#000000" stroke-width="1"/>
    <path d="M255.797,95.557 L242.636,111.812 L233.474,124.982 L225.458,137.579 L226.297,144.357 L251.797,156.475 L290.734,185.105 L317.646,204.001 L356.583,228 L393.23,253.244 L430.5,274.5 L455.5,286.5 L478.5,299.5 L493.435,308.214 L509.197,316.057 L521.797,279.657 L512.497,270.257 L505.46,276.664 L498.588,277 L492.397,280.157 L486.397,276.857 L483.297,267 L483.297,258.97 L488.997,254.857 L485.991,252.099 L476.797,256.557 L470.197,259.357 L463.597,261.757 L453.397,260.057 L448.772,252.099 L454.498,242.365 L464.797,233.457 L458.506,228 L450.49,232.631 L440.756,238 L432.167,242.365 L421.097,241.357 L418.297,233.257 L421.287,222.896 L431.021,213.162 L426.441,206.657 L414.197,209.557 L403.197,216.457 L388.649,218.5 L381.205,210.872 L383.496,206.657 L389.794,195.412 L397.797,191.657 L391.512,182.814 L385.213,185.677 L377.77,192.549 L366.318,198.847 L362.297,198.057 L354.866,191.976 L353.148,183.387 L357.729,175.371 L362.309,168.499 L366.897,165.057 L357.097,166.157 L353.897,170.257 L341.123,177.088 L331.797,178.557 L325.09,174.798 L323.372,166.782 L325.09,158.765 L330.816,151.894 L340.997,144.357 L325.597,135.057 L314.997,144.157 L303.697,150.257 L296.797,155.657 L292.452,147.313 L295.315,135.861 L299.896,124.982 L303.697,118.857 L290.162,110.667 L270.697,98.257 L262.697,95.157 L255.797,95.557 z" fill-opacity="0" stroke="#000000" stroke-width="1"/>
  </g>
</svg>
